<?xml version="1.0" encoding="UTF-8" standalone="no"?>
<svg
   xmlns:dc="http://purl.org/dc/elements/1.1/"
   xmlns:cc="http://creativecommons.org/ns#"
   xmlns:rdf="http://www.w3.org/1999/02/22-rdf-syntax-ns#"
   xmlns:svg="http://www.w3.org/2000/svg"
   xmlns="http://www.w3.org/2000/svg"
   xmlns:sodipodi="http://sodipodi.sourceforge.net/DTD/sodipodi-0.dtd"
   xmlns:inkscape="http://www.inkscape.org/namespaces/inkscape"
   width="229"
   height="41"
   viewBox="0 0 229 41"
   version="1.1"
   id="svg16"
   sodipodi:docname="testprotectlogo-white.svg"
   inkscape:version="0.92.4 (5da689c313, 2019-01-14)">
  <metadata
     id="metadata22">
    <rdf:RDF>
      <cc:Work
         rdf:about="">
        <dc:format>image/svg+xml</dc:format>
        <dc:type
           rdf:resource="http://purl.org/dc/dcmitype/StillImage" />
      </cc:Work>
    </rdf:RDF>
  </metadata>
  <defs
     id="defs20" />
  <sodipodi:namedview
     pagecolor="#ffffff"
     bordercolor="#666666"
     borderopacity="1"
     objecttolerance="10"
     gridtolerance="10"
     guidetolerance="10"
     inkscape:pageopacity="0"
     inkscape:pageshadow="2"
     inkscape:window-width="1920"
     inkscape:window-height="1442"
     id="namedview18"
     showgrid="false"
     inkscape:zoom="4.8416744"
     inkscape:cx="76.28995"
     inkscape:cy="9.795292"
     inkscape:window-x="2869"
     inkscape:window-y="-11"
     inkscape:window-maximized="1"
     inkscape:current-layer="svg16" />
  <g
     fill="#FFF"
     fill-rule="nonzero"
     id="g14"
     style="fill:#fffffa;fill-opacity:1">
    <path
       d="M66.1 9.307v3.232h-4.156v19.154h-4.156V12.539h-4.125V9.307zM77.908 9.307v3.382H71.18v5.267h6.338v3.382h-6.338v6.883h7.026v3.472H67.056V9.307zM83.468 23.792v2.604c.03.838-.06 1.765.718 2.274.24.15.628.33 1.256.33.717 0 1.136-.15 1.435-.42.597-.479.597-1.466.597-2.992 0-.3.06-1.287-.448-2.065-.329-.48-.777-.749-.957-.898l-3.886-2.634c-.837-.628-1.286-.927-1.884-1.825-.478-.778-.777-1.646-.777-3.562 0-.329-.03-1.915.538-3.082 1.256-2.723 5.112-2.723 5.56-2.723.659 0 4.276 0 5.412 2.962.24.569.24.778.359 1.886v2.214h-4.126v-2.274c-.03-.659-.239-1.616-1.823-1.616-.957 0-1.824.359-1.824 2.214 0 .09-.06 1.437.448 2.155.12.18.419.42.867.718l4.006 2.754c.3.21 1.166.868 1.824 1.735.986 1.287.897 2.275.897 3.861 0 1.706.03 2.454-.21 3.292-.478 1.796-2.002 3.412-5.8 3.412-1.584 0-3.258-.21-4.603-1.257-.718-.569-1.046-1.167-1.166-1.527-.299-.628-.389-1.047-.448-2.304v-3.232h4.035zM104.664 9.307v3.232h-4.155v19.154h-4.156V12.539h-4.125V9.307zM120.24 21.547c-.18 3.622-1.017 5.298-2.033 6.734.508.569.987.868 2.451.838l-.03 2.693c-.239.03-.986.18-1.763.18-1.615 0-2.422-.658-2.93-1.167-1.525.838-2.541 1.257-4.245 1.257-.419 0-1.435-.03-2.482-.42-2.48-.927-3.736-3.201-3.736-5.745 0-1.227.239-2.035.448-2.514.867-2.394 2.99-4.19 3.468-4.639a5.52 5.52 0 01-.449-.838c-.15-.329-1.195-2.514-1.195-4.37 0-1.675.837-3.5 2.451-4.249.897-.419 1.883-.419 2.182-.419.3 0 1.166 0 2.003.36.837.388 2.302 1.376 2.302 3.68 0 2.724-1.644 4.43-3.258 6.375l2.93 5.716.179-.479c.24-.628.448-1.496.478-3.022h3.229v.03zm-9.387.57c-.897 1.136-1.645 2.214-1.645 3.77 0 .15.03.658.18 1.137.418 1.018 1.465 1.676 2.541 1.676.478 0 1.226-.09 2.182-.658l-3.258-5.926zm1.883-7.453c.508-.838.598-1.167.598-1.676 0-.957-.688-1.167-1.046-1.167-.837.03-1.166.898-1.166 1.586 0 1.048.687 2.454.747 2.574.3-.449.598-.868.867-1.317zM132.079 9.307c.12 0 .657 0 1.106.09 1.345.3 1.973 1.137 2.182 1.586.478.958.478 2.394.478 3.352v2.963c0 2.095-.09 3.112-.807 3.98-.657.838-1.614 1.077-3.647 1.107h-3.498v9.338h-4.125V9.307h8.31zm-2.153 9.876c.867 0 1.345-.09 1.585-.449.299-.389.299-1.107.299-1.556v-2.274c0-.629.09-1.287-.33-1.796-.478-.599-1.375-.479-1.524-.479h-2.033v6.554h2.003zM145.442 9.307c.986 0 1.913.09 2.72.719 1.346.987 1.286 2.543 1.286 4.01v2.424c0 .15.06 1.556-.449 2.424-.03.09-.209.389-.478.598-.448.39-.897.54-1.973.779.09 0 .807.18 1.226.448 1.764.958 1.793 2.844 1.793 3.472v4.549c0 .06-.03 1.736.569 2.634.12.12.209.209.388.359h-4.544c-.06-.12-.12-.21-.18-.36-.149-.359-.388-.927-.418-1.795V24.42c0-.359 0-.688-.03-1.077-.12-1.227-1.046-1.496-2.122-1.526h-1.973v9.876h-4.036V9.307h8.22zm-1.973 9.308c.538-.03 1.166-.06 1.554-.54.33-.388.3-.687.36-1.585v-2.155c-.06-.868-.12-1.137-.48-1.496-.448-.39-.896-.36-1.434-.36h-2.153v6.136h2.153zM151.54 14.335c0-.479-.09-2.723 1.406-4.07.837-.718 2.391-1.466 4.873-1.466 3.228 0 4.932 1.346 5.62 2.633.359.718.478 1.437.508 2.993v12.48c-.03 1.436-.209 2.723-1.285 3.77-1.346 1.227-3.14 1.497-4.843 1.497-1.645 0-3.319-.21-4.664-1.287-.658-.539-.987-1.078-1.106-1.407-.389-.778-.449-1.736-.479-2.574V14.335h-.03zm4.156 11.881c0 .658 0 1.496.389 2.065.508.658 1.495.658 1.674.658.18 0 .807 0 1.285-.389.748-.508.718-1.436.718-2.244V14.724c0-.12.09-1.137-.24-1.796-.179-.419-.657-.987-1.703-.987-.21 0-.837.03-1.346.419-.926.628-.747 1.616-.777 2.544v11.312zM177.042 9.307v3.232h-4.156v19.154h-4.155V12.539h-4.126V9.307zM189.03 9.307v3.382h-6.727v5.267h6.338v3.382h-6.338v6.883h7.026v3.472h-11.151V9.307zM198.596 14.634c-.03-.299-.03-.538-.06-.808-.09-1.376-.747-1.825-2.062-1.825-.568 0-.897.12-1.107.24-.747.478-.747 1.406-.777 2.184v12c0 .51 0 .629.06.928.15 1.108.867 1.616 1.973 1.616.658 0 1.046-.18 1.286-.359.627-.479.657-1.047.687-2.424v-2.933h4.066v3.173c-.03.897-.03 1.825-.329 2.663-1.076 3.112-5.232 3.053-5.71 3.053-.957 0-1.824-.15-2.122-.21-1.645-.33-3.11-1.047-3.767-2.663-.33-.838-.33-1.527-.33-2.335v-12.18c.03-.389.03-.778.06-1.167.06-1.437.45-2.544 1.585-3.472.927-.718 2.153-1.287 4.634-1.287 1.435 0 2.96.18 4.185 1.018.598.419 1.106.988 1.405 1.646.36.718.389 1.167.389 2.544v3.411h-4.066v-2.813zM215.906 9.307v3.232h-4.156v19.154h-4.155V12.539h-4.126V9.307z"
       id="path2"
       style="fill:#fffffa;fill-opacity:1" />
    <g
       id="g10"
       style="fill:#fffffa;fill-opacity:1">
      <path
         d="M40.867 13.048c-1.225-.359-1.943-.449-1.943-1.137 0-.479.448-.808 1.196-.808.897 0 2.481.688 2.481.688l.807-1.855s-1.405-.838-3.198-.838c-2.362 0-3.917 1.287-3.917 3.022 0 1.497.957 2.155 3.05 2.694 1.165.3 1.883.539 1.883 1.317 0 .568-.538.987-1.226.987-1.524 0-3.169-.927-3.169-.927l-.867 1.825s1.435 1.137 3.678 1.137c2.57 0 4.185-1.346 4.185-3.202 0-1.436-.957-2.304-2.96-2.903zM18.685 9.307h-2.332v9.547h2.421v-5.686s1.884 3.292 3.588 5.686h2.033V9.307h-2.392v4.968c-.03 0-1.345-2.304-3.318-4.968zM32.168 18.854v-4.13H28.58v4.13H26.16V9.307h2.421v3.621h3.618v-3.62h2.421v9.546zM17.967 28.52c-.18-.12-.388-.21-.628-.21-.328 0-.508.18-.508.42s.27.449.718.808c.508.419.777.748.777 1.197 0 .479-.448 1.047-1.315 1.047-.39 0-.838-.12-1.136-.389l.269-.448c.209.15.448.299.777.299s.598-.18.598-.539c0-.419-.508-.688-.837-.958-.359-.299-.688-.538-.688-1.047 0-.509.508-.928 1.226-.928.448 0 .777.15.957.33l-.21.418zM21.824 28.55c-.18-.09-.508-.21-.807-.21-.778 0-1.346.57-1.346 1.437 0 .898.628 1.437 1.375 1.437.3 0 .568-.09.778-.18l.209.48c-.24.149-.658.268-1.016.268-1.346 0-2.183-.867-2.183-2.005 0-1.047.837-1.975 2.183-1.975.388 0 .777.15 1.046.3l-.24.448zM24.245 31.214c-.807 0-1.106-.748-1.106-1.496 0-.719.329-1.377 1.106-1.377.778 0 1.106.688 1.106 1.377-.03.718-.299 1.496-1.106 1.496zm0 .539c1.166 0 1.914-.898 1.914-2.035 0-1.078-.808-1.946-1.914-1.946-1.106 0-1.913.868-1.913 1.946 0 1.137.717 2.035 1.913 2.035zM27.444 31.693V28.37h-1.196v-.509h3.14v.509h-1.196v3.322h-.748zM29.836 27.862h.777v3.322h1.525v.509h-2.302v-3.831zM33.633 30.166c.179-.508.358-.957.508-1.556.18.599.358 1.048.508 1.556h-1.016zm.298-2.304l-1.554 3.83h.658l.388-1.047h1.346l.358 1.048h.867l-1.435-3.831h-.628zM39.82 31.693h-.567c-.748-.898-1.465-1.766-2.183-2.754v2.754h-.627v-3.831h.568a41.355 41.355 0 012.182 2.723v-2.723h.628v3.83zM41.256 28.37h.568c.807 0 1.285.48 1.285 1.288 0 1.077-.478 1.526-1.345 1.526h-.508V28.37zm-.777-.508v3.83h1.255c1.346 0 2.183-.747 2.183-2.034 0-.928-.539-1.796-2.093-1.796h-1.345z"
         id="path4"
         style="fill:#fffffa;fill-opacity:1" />
      <g
         id="g8"
         style="fill:#fffffa;fill-opacity:1">
        <path
           d="M29.806 24.69c-.777-1.407-3.468-3.771-8.251-2.993-1.824.15-2.571.27-3.528.21-3.797-.3-4.454-2.395-4.514-2.514h-.957s.508 4.1 4.694 4.788c1.016.18 3.139-.03 4.514-.27 3.378-.538 5.95-.628 8.042 2.245 0 0 .03.03.06.03s.06-.03.06-.03.269-.568-.12-1.466zM46.04 19.363c-.03.12-.748 2.214-4.545 2.514-.957.06-1.704-.03-3.528-.21-4.723-.778-6.756 1.586-7.324 2.843-.389.868-.18 1.616-.18 1.616s0 .03.06.03c.03 0 .06-.03.06-.03 2.093-2.903 3.797-2.813 7.175-2.274 1.375.24 3.498.419 4.514.27 4.156-.69 4.724-4.76 4.724-4.76h-.957z"
           id="path6"
           style="fill:#fffffa;fill-opacity:1" />
      </g>
    </g>
    <path
       d="M224.605 4.19v32.62H4.185V4.19h220.42zM0 0v41h228.79V0H0z"
       id="path12"
       style="fill:#fffffa;fill-opacity:1" />
  </g>
</svg>
